<svg xmlns="http://www.w3.org/2000/svg" version="1.1" xmlns:xlink="http://www.w3.org/1999/xlink" xmlns:svgjs="http://svgjs.dev/svgjs" width="1500" height="1500" viewBox="0 0 1500 1500"><rect width="1500" height="1500" fill="#ffffff"></rect><g transform="matrix(0.6666666666666666,0,0,0.6666666666666666,249.39393939393938,685.5489236884176)"><svg viewBox="0 0 396 51" data-background-color="#ffffff" preserveAspectRatio="xMidYMid meet" height="193" width="1500" xmlns="http://www.w3.org/2000/svg" xmlns:xlink="http://www.w3.org/1999/xlink"><g id="tight-bounds" transform="matrix(1,0,0,1,0.2400000000000091,0.046670144228215804)"><svg viewBox="0 0 395.52 50.90665971154356" height="50.90665971154356" width="395.52"><g><svg viewBox="0 0 476.56838873358726 61.338250390724454" height="50.90665971154356" width="395.52"><g transform="matrix(1,0,0,1,81.04838873358727,9.79646306233851)"><svg viewBox="0 0 395.52 41.74532426604743" height="41.74532426604743" width="395.52"><g id="textblocktransform"><svg viewBox="0 0 395.52 41.74532426604743" height="41.74532426604743" width="395.52" id="textblock"><g><svg viewBox="0 0 395.52 41.74532426604743" height="41.74532426604743" width="395.52"><g transform="matrix(1,0,0,1,0,0)"><svg width="395.52" viewBox="4.37 -36.23 441.54 46.61" height="41.74532426604743" data-palette-color="#000000"><path d="M26.61-13.33L26.61-13.33Q26.61 0.49 17.04 0.49L17.04 0.49Q11.04 0.49 8.96-4L8.96-4 8.84-4Q8.94-3.81 8.94 0.05L8.94 0.05 8.94 10.38 4.52 10.38 4.52-20.95Q4.52-25.1 4.37-26.42L4.37-26.42 8.64-26.42Q8.67-26.32 8.72-25.7 8.76-25.07 8.83-23.86 8.89-22.66 8.89-22.07L8.89-22.07 8.98-22.07Q10.21-24.63 12.1-25.79 13.99-26.95 17.04-26.95L17.04-26.95Q21.88-26.95 24.24-23.62 26.61-20.29 26.61-13.33ZM22.07-13.33L22.07-13.33Q22.07-18.85 20.58-21.2 19.09-23.56 15.89-23.56L15.89-23.56Q12.21-23.56 10.57-20.89 8.94-18.21 8.94-12.79L8.94-12.79Q8.94-7.59 10.57-5.18 12.21-2.76 15.84-2.76L15.84-2.76Q19.09-2.76 20.58-5.22 22.07-7.69 22.07-13.33ZM48.19-26.42L48.19-3.47 57.47-3.47 57.47 0 33.49 0 33.49-3.47 43.8-3.47 43.8-22.95 36.01-22.95 36.01-26.42 48.19-26.42ZM48.19-31.54L43.31-31.54 43.31-36.23 48.19-36.23 48.19-31.54ZM87.67 0L82.76 0 74.92-10.84 67.04 0 62.3 0 72.43-13.57 62.74-26.42 67.6-26.42 74.92-16.14 82.2-26.42 87.1-26.42 77.41-13.62 87.67 0ZM116.72-12.28L97.87-12.28Q97.87-7.84 99.83-5.32 101.8-2.81 105.22-2.81L105.22-2.81Q107.73-2.81 109.62-3.89 111.52-4.98 112.15-6.86L112.15-6.86 116.01-5.76Q114.93-2.73 112.07-1.12 109.2 0.49 105.22 0.49L105.22 0.49Q99.46 0.49 96.35-3.1 93.25-6.69 93.25-13.38L93.25-13.38Q93.25-19.9 96.29-23.4 99.33-26.9 105.07-26.9L105.07-26.9Q110.81-26.9 113.76-23.41 116.72-19.92 116.72-12.87L116.72-12.87 116.72-12.28ZM105.12-23.66L105.12-23.66Q101.85-23.66 99.94-21.52 98.04-19.38 97.92-15.65L97.92-15.65 112.18-15.65Q111.49-23.66 105.12-23.66ZM137.98-36.23L137.98-3.47 147.26-3.47 147.26 0 123.28 0 123.28-3.47 133.58-3.47 133.58-32.76 126.53-32.76 126.53-36.23 137.98-36.23ZM206.63-13.33L206.63-13.33Q206.63 0.49 197.06 0.49L197.06 0.49Q191.05 0.49 188.97-4L188.97-4 188.85-4Q188.95-3.81 188.95 0.05L188.95 0.05 188.95 10.38 184.53 10.38 184.53-20.95Q184.53-25.1 184.38-26.42L184.38-26.42 188.66-26.42Q188.68-26.32 188.73-25.7 188.78-25.07 188.84-23.86 188.9-22.66 188.9-22.07L188.9-22.07 189-22.07Q190.22-24.63 192.11-25.79 194-26.95 197.06-26.95L197.06-26.95Q201.89-26.95 204.26-23.62 206.63-20.29 206.63-13.33ZM202.08-13.33L202.08-13.33Q202.08-18.85 200.6-21.2 199.11-23.56 195.91-23.56L195.91-23.56Q192.22-23.56 190.59-20.89 188.95-18.21 188.95-12.79L188.95-12.79Q188.95-7.59 190.59-5.18 192.22-2.76 195.86-2.76L195.86-2.76Q199.11-2.76 200.6-5.22 202.08-7.69 202.08-13.33ZM236.8-13.23L236.8-13.23Q236.8-6.57 233.73-3.04 230.67 0.49 224.88 0.49L224.88 0.49Q219.22 0.49 216.21-3.08 213.19-6.64 213.19-13.23L213.19-13.23Q213.19-20.04 216.28-23.47 219.37-26.9 225.03-26.9L225.03-26.9Q230.99-26.9 233.89-23.51 236.8-20.12 236.8-13.23ZM232.18-13.23L232.18-13.23Q232.18-18.48 230.51-21.07 228.84-23.66 225.1-23.66L225.1-23.66Q221.32-23.66 219.56-21.02 217.8-18.38 217.8-13.23L217.8-13.23Q217.8-8.11 219.56-5.43 221.32-2.76 224.84-2.76L224.84-2.76Q228.72-2.76 230.45-5.37 232.18-7.98 232.18-13.23ZM265.9-7.54L265.9-7.54Q265.9-3.78 263.05-1.65 260.21 0.49 255.18 0.49L255.18 0.49Q250.15 0.49 247.53-1.09 244.9-2.66 244.1-6.05L244.1-6.05 247.98-6.81Q248.44-4.71 249.97-3.75 251.49-2.78 255.18-2.78L255.18-2.78Q261.77-2.78 261.77-6.96L261.77-6.96Q261.77-8.52 260.58-9.48 259.38-10.45 256.91-11.06L256.91-11.06Q250.47-12.65 248.73-13.55 247-14.45 246.07-15.81 245.15-17.16 245.15-19.19L245.15-19.19Q245.15-22.78 247.73-24.8 250.32-26.83 255.23-26.83L255.23-26.83Q259.53-26.83 262.09-25.21 264.65-23.58 265.29-20.48L265.29-20.48 261.33-20Q261.06-21.75 259.6-22.66 258.13-23.56 255.23-23.56L255.23-23.56Q249.25-23.56 249.25-19.87L249.25-19.87Q249.25-18.41 250.26-17.53 251.27-16.65 253.52-16.11L253.52-16.11 256.43-15.36Q260.4-14.38 262.15-13.43 263.9-12.48 264.9-11.05 265.9-9.62 265.9-7.54ZM288.21-26.42L288.21-3.47 297.49-3.47 297.49 0 273.51 0 273.51-3.47 283.82-3.47 283.82-22.95 276.03-22.95 276.03-26.42 288.21-26.42ZM288.21-31.54L283.33-31.54 283.33-36.23 288.21-36.23 288.21-31.54ZM308.76-22.95L304.66-22.95 304.66-26.42 308.81-26.42 310.23-33.3 313.16-33.3 313.16-26.42 323.71-26.42 323.71-22.95 313.16-22.95 313.16-7.03Q313.16-5.1 314.2-4.17 315.23-3.25 317.6-3.25L317.6-3.25Q320.87-3.25 324.85-4.08L324.85-4.08 324.85-0.73Q320.73 0.39 316.67 0.39L316.67 0.39Q312.72 0.39 310.74-1.28 308.76-2.95 308.76-6.57L308.76-6.57 308.76-22.95ZM348.21-26.42L348.21-3.47 357.49-3.47 357.49 0 333.52 0 333.52-3.47 343.82-3.47 343.82-22.95 336.03-22.95 336.03-26.42 348.21-26.42ZM348.21-31.54L343.33-31.54 343.33-36.23 348.21-36.23 348.21-31.54ZM386.81-13.23L386.81-13.23Q386.81-6.57 383.75-3.04 380.68 0.49 374.9 0.49L374.9 0.49Q369.23 0.49 366.22-3.08 363.2-6.64 363.2-13.23L363.2-13.23Q363.2-20.04 366.29-23.47 369.38-26.9 375.04-26.9L375.04-26.9Q381-26.9 383.91-23.51 386.81-20.12 386.81-13.23ZM382.2-13.23L382.2-13.23Q382.2-18.48 380.52-21.07 378.85-23.66 375.12-23.66L375.12-23.66Q371.33-23.66 369.57-21.02 367.82-18.38 367.82-13.23L367.82-13.23Q367.82-8.11 369.57-5.43 371.33-2.76 374.85-2.76L374.85-2.76Q378.73-2.76 380.46-5.37 382.2-7.98 382.2-13.23ZM415.64 0L411.22 0 411.22-16.97Q411.22-20.29 409.94-21.9 408.66-23.51 405.85-23.51L405.85-23.51Q402.82-23.51 400.88-21.3 398.94-19.09 398.94-15.31L398.94-15.31 398.94 0 394.55 0 394.55-20.78Q394.55-25.39 394.4-26.42L394.4-26.42 398.55-26.42Q398.58-26.29 398.6-25.76 398.62-25.22 398.66-24.52 398.7-23.83 398.75-21.9L398.75-21.9 398.82-21.9Q401.38-26.9 407.27-26.9L407.27-26.9Q411.49-26.9 413.57-24.62 415.64-22.34 415.64-17.6L415.64-17.6 415.64 0ZM445.91-7.54L445.91-7.54Q445.91-3.78 443.07-1.65 440.22 0.49 435.19 0.49L435.19 0.49Q430.17 0.49 427.54-1.09 424.92-2.66 424.11-6.05L424.11-6.05 427.99-6.81Q428.46-4.71 429.98-3.75 431.51-2.78 435.19-2.78L435.19-2.78Q441.79-2.78 441.79-6.96L441.79-6.96Q441.79-8.52 440.59-9.48 439.39-10.45 436.93-11.06L436.93-11.06Q430.48-12.65 428.75-13.55 427.02-14.45 426.09-15.81 425.16-17.16 425.16-19.19L425.16-19.19Q425.16-22.78 427.75-24.8 430.34-26.83 435.24-26.83L435.24-26.83Q439.54-26.83 442.1-25.21 444.67-23.58 445.3-20.48L445.3-20.48 441.35-20Q441.08-21.75 439.61-22.66 438.15-23.56 435.24-23.56L435.24-23.56Q429.26-23.56 429.26-19.87L429.26-19.87Q429.26-18.41 430.28-17.53 431.29-16.65 433.53-16.11L433.53-16.11 436.44-15.36Q440.42-14.38 442.16-13.43 443.91-12.48 444.91-11.05 445.91-9.62 445.91-7.54Z" opacity="1" transform="matrix(1,0,0,1,0,0)" fill="#000000" class="wordmark-text-0" data-fill-palette-color="primary" id="text-0"></path></svg></g></svg></g></svg></g></svg></g><g><svg viewBox="0 0 61.338250390724454 61.338250390724454" height="61.338250390724454" width="61.338250390724454"><g><svg></svg></g><g id="icon-0"><svg viewBox="0 0 61.338250390724454 61.338250390724454" height="61.338250390724454" width="61.338250390724454"><g><path d="M0 30.669c0-16.938 13.731-30.669 30.669-30.669 16.938 0 30.669 13.731 30.669 30.669 0 16.938-13.731 30.669-30.669 30.669-16.938 0-30.669-13.731-30.669-30.669zM30.669 57.574c14.859 0 26.904-12.046 26.905-26.905 0-14.859-12.046-26.904-26.905-26.904-14.859 0-26.904 12.046-26.904 26.904 0 14.859 12.046 26.904 26.904 26.905z" data-fill-palette-color="tertiary" fill="#000000" stroke="transparent"></path></g><g transform="matrix(1,0,0,1,22.890520772142338,17.262048586607918)"><svg viewBox="0 0 15.557208846439774 26.81415321750862" height="26.81415321750862" width="15.557208846439774"><g><svg xmlns="http://www.w3.org/2000/svg" xmlns:xlink="http://www.w3.org/1999/xlink" version="1.1" x="0" y="0" viewBox="21.679106830508616 1 56.85827385947762 98" enable-background="new 0 0 100 100" xml:space="preserve" height="26.81415321750862" width="15.557208846439774" class="icon-dxe-0" data-fill-palette-color="accent" id="dxe-0"><g fill="#261f20" data-fill-palette-color="accent"><path fill-rule="evenodd" clip-rule="evenodd" d="M30.545 28.822C29.38 36.039 30.875 43.672 37.045 47.863 30.758 19.81 45.756 8.664 59.646 1 43.466 24.046 76.542 24.644 78.423 51.13 80.028 73.71 64.507 91.317 46.639 99 46.845 76.175 24.089 73.067 21.801 54.397 20.905 47.094 25.062 33.766 30.545 28.822" fill="#000000" data-fill-palette-color="accent"></path></g></svg></g></svg></g></svg></g></svg></g></svg></g><defs></defs></svg><rect width="395.52" height="50.90665971154356" fill="none" stroke="none" visibility="hidden"></rect></g></svg></g></svg>